<mxfile host="app.diagrams.net" modified="2021-02-08T17:46:11.405Z" agent="5.0 (Windows NT 10.0; Win64; x64) AppleWebKit/537.36 (KHTML, like Gecko) Chrome/88.0.4324.104 Safari/537.36" etag="FtGt76Z6__i6fVtCj007" version="14.2.9" type="github">
  <diagram name="Page-1" id="3e8102d1-ef87-2e61-34e1-82d9a586fe2e">
    <mxGraphModel dx="705" dy="350" grid="1" gridSize="10" guides="1" tooltips="1" connect="1" arrows="1" fold="1" page="1" pageScale="1" pageWidth="1100" pageHeight="850" background="#ffffff" math="0" shadow="0">
      <root>
        <mxCell id="0" />
        <mxCell id="1" parent="0" />
        <mxCell id="_xwVxEHKjj1f3G5-KM4j-1" value="&lt;div style=&quot;text-align: left&quot;&gt;&lt;span&gt;&lt;b&gt;Proceso de Onboarding&lt;/b&gt;&lt;/span&gt;&lt;/div&gt;" style="text;html=1;strokeColor=none;fillColor=none;align=center;verticalAlign=middle;whiteSpace=wrap;rounded=0;" vertex="1" parent="1">
          <mxGeometry width="170" height="30" as="geometry" />
        </mxCell>
        <mxCell id="_xwVxEHKjj1f3G5-KM4j-4" value="&lt;font style=&quot;font-size: 8px&quot;&gt;&lt;b&gt;Obtener acceso a repositorio, instalar proyectos y configurar ambientes en local&lt;/b&gt;&lt;/font&gt;" style="shape=step;perimeter=stepPerimeter;whiteSpace=wrap;html=1;fixedSize=1;strokeColor=#CCCCCC;" vertex="1" parent="1">
          <mxGeometry x="20" y="40" width="110" height="80" as="geometry" />
        </mxCell>
        <mxCell id="_xwVxEHKjj1f3G5-KM4j-5" value="&lt;span style=&quot;font-size: 8px&quot;&gt;&lt;b&gt;Conocer cada proyecto de manera individual y entender la co-relacion entre estos&lt;/b&gt;&lt;/span&gt;" style="shape=step;perimeter=stepPerimeter;whiteSpace=wrap;html=1;fixedSize=1;strokeColor=#CCCCCC;" vertex="1" parent="1">
          <mxGeometry x="126" y="39" width="110" height="80" as="geometry" />
        </mxCell>
        <mxCell id="_xwVxEHKjj1f3G5-KM4j-6" value="&lt;span style=&quot;font-size: 8px&quot;&gt;&lt;b&gt;Comprender los procesos y estandares de desarrollo, (unit testing, PR pipelines, Deployment pipelines), code linting, typings&lt;/b&gt;&lt;/span&gt;" style="shape=step;perimeter=stepPerimeter;whiteSpace=wrap;html=1;fixedSize=1;strokeColor=#CCCCCC;" vertex="1" parent="1">
          <mxGeometry x="233" y="39" width="110" height="80" as="geometry" />
        </mxCell>
        <mxCell id="_xwVxEHKjj1f3G5-KM4j-7" value="&lt;span style=&quot;font-size: 8px&quot;&gt;&lt;b&gt;Conocer las diferentes herramientas internas para desarrollo como, manejador de estados, manejador de formularios, storybook, manejador de llamadas asyncronas&lt;br&gt;&lt;/b&gt;&lt;/span&gt;" style="shape=step;perimeter=stepPerimeter;whiteSpace=wrap;html=1;fixedSize=1;strokeColor=#CCCCCC;" vertex="1" parent="1">
          <mxGeometry x="344" y="39" width="110" height="80" as="geometry" />
        </mxCell>
        <mxCell id="_xwVxEHKjj1f3G5-KM4j-9" value="&lt;div style=&quot;text-align: left&quot;&gt;&lt;span&gt;&lt;b&gt;Tareas tecnicas necesarias para comenzar implementacion de funcionalidad o &quot;desarrollo de maqueta &quot;&amp;nbsp;&lt;/b&gt;&lt;/span&gt;&lt;/div&gt;" style="text;html=1;strokeColor=none;fillColor=none;align=center;verticalAlign=middle;whiteSpace=wrap;rounded=0;" vertex="1" parent="1">
          <mxGeometry x="20" y="140" width="350" height="30" as="geometry" />
        </mxCell>
        <mxCell id="_xwVxEHKjj1f3G5-KM4j-10" value="&lt;font style=&quot;font-size: 8px&quot;&gt;&lt;b&gt;Tomar design tokens de la guia de estilos y plasmarlos en el sistema de diseño o libreria UI&lt;/b&gt;&lt;/font&gt;" style="shape=step;perimeter=stepPerimeter;whiteSpace=wrap;html=1;fixedSize=1;strokeColor=#CCCCCC;" vertex="1" parent="1">
          <mxGeometry x="20" y="190" width="120" height="80" as="geometry" />
        </mxCell>
        <mxCell id="_xwVxEHKjj1f3G5-KM4j-12" value="&lt;font style=&quot;font-size: 6px&quot;&gt;&lt;b&gt;* Los design tokens pueden ser del tipo, tamaños de letra, margenes, espaciados entre elementos, fuentes tipograficas, colores, degradados, sombras, bordes etc&lt;/b&gt;&lt;/font&gt;" style="text;html=1;strokeColor=none;fillColor=none;align=left;verticalAlign=middle;whiteSpace=wrap;rounded=0;" vertex="1" parent="1">
          <mxGeometry x="20" y="270" width="130" height="70" as="geometry" />
        </mxCell>
        <mxCell id="_xwVxEHKjj1f3G5-KM4j-13" value="&lt;span style=&quot;font-size: 8px&quot;&gt;&lt;b&gt;Comenzar a trabajar los estilos de los componentes basicos como, botones, textos, inputs controls&lt;/b&gt;&lt;/span&gt;" style="shape=step;perimeter=stepPerimeter;whiteSpace=wrap;html=1;fixedSize=1;strokeColor=#CCCCCC;" vertex="1" parent="1">
          <mxGeometry x="170" y="190" width="120" height="80" as="geometry" />
        </mxCell>
        <mxCell id="_xwVxEHKjj1f3G5-KM4j-14" value="&lt;font&gt;&lt;b style=&quot;font-size: 6px&quot;&gt;Cada componente debe cubrir los &lt;/b&gt;&lt;span style=&quot;font-size: 6px&quot;&gt;&lt;b&gt;estándares&lt;/b&gt;&lt;/span&gt;&lt;b style=&quot;font-size: 6px&quot;&gt;&amp;nbsp;de desarrollo establecidos por la arquitectura del proyecto, estos son:&lt;/b&gt;&lt;br&gt;&lt;br&gt;&lt;b style=&quot;font-size: 6px&quot;&gt;- Buenas practicas tanto en el &lt;/b&gt;&lt;span style=&quot;font-size: 6px&quot;&gt;&lt;b&gt;código&lt;/b&gt;&lt;/span&gt;&lt;b style=&quot;font-size: 6px&quot;&gt;&amp;nbsp;de funcionalidad como en el de estilos como CSS o en este caso JSS.&lt;/b&gt;&lt;br&gt;&lt;b style=&quot;font-size: 6px&quot;&gt;- Cada componente debe cubrir &lt;/b&gt;&lt;span style=&quot;font-size: 6px&quot;&gt;&lt;b&gt;mínimo&lt;/b&gt;&lt;/span&gt;&lt;b style=&quot;font-size: 6px&quot;&gt;&amp;nbsp;el 85% de cobertura en pruebas unitarias&lt;/b&gt;&lt;br&gt;&lt;/font&gt;" style="text;html=1;strokeColor=none;fillColor=none;align=left;verticalAlign=middle;whiteSpace=wrap;rounded=0;" vertex="1" parent="1">
          <mxGeometry x="170" y="280" width="130" height="120" as="geometry" />
        </mxCell>
      </root>
    </mxGraphModel>
  </diagram>
</mxfile>
